<?xml version="1.0" encoding="iso-8859-1"?>
<!-- Generator: Adobe Illustrator 19.0.0, SVG Export Plug-In . SVG Version: 6.00 Build 0)  -->
<svg version="1.1" id="Capa_1" xmlns="http://www.w3.org/2000/svg" xmlns:xlink="http://www.w3.org/1999/xlink" x="0px" y="0px"
	 viewBox="0 0 511.31 511.31" style="enable-background:new 0 0 511.31 511.31;" xml:space="preserve">
<path style="fill:#CFD8DC;" d="M153.674,436.642c0.022,16.726-5.617,32.967-16,46.08c-4.473,5.826-9.88,10.872-16,14.933
	c-12.414,8.962-27.356,13.743-42.667,13.653c-15.361-0.011-30.341-4.781-42.88-13.653c-6.062-4.144-11.396-9.262-15.787-15.147
	c-21.331-26.858-21.331-64.876,0-91.733c4.41-5.943,9.825-11.068,16-15.147c12.414-8.962,27.356-13.743,42.667-13.653
	c15.31-0.09,30.253,4.692,42.667,13.653c6.12,4.061,11.527,9.107,16,14.933C148.057,403.675,153.696,419.916,153.674,436.642z"/>
<g>
	<path style="fill:#F44336;" d="M137.674,482.722c-4.473,5.826-9.88,10.872-16,14.933c-33.697-23.297-42.127-69.5-18.83-103.197
		c5.089-7.361,11.469-13.74,18.83-18.83c6.12,4.061,11.527,9.107,16,14.933c-25.449,14.619-34.229,47.1-19.61,72.55
		C122.749,471.269,129.516,478.036,137.674,482.722L137.674,482.722z"/>
	<path style="fill:#F44336;" d="M68.34,436.642c-0.134,24.377-12.159,47.154-32.213,61.013c-6.062-4.144-11.396-9.262-15.787-15.147
		c16.431-9.441,26.592-26.917,26.667-45.867c-0.114-18.939-10.264-36.397-26.667-45.867c4.41-5.943,9.825-11.068,16-15.147
		C56.313,389.536,68.255,412.304,68.34,436.642z"/>
</g>
<path style="fill:#FFE082;" d="M470.538,429.09l-64-64c-4.165-4.164-10.917-4.164-15.083,0l-21.333,21.333
	c-4.164,4.165-4.164,10.917,0,15.083l64,64c4.165,4.164,10.917,4.164,15.083,0l21.333-21.333
	C474.702,440.007,474.702,433.255,470.538,429.09z"/>
<path style="fill:#FF8F00;" d="M497.652,434.893l-0.448-0.469c-13.011-12.959-34.051-12.959-47.061,0l-10.667,10.667
	c-12.846,12.811-13.046,33.557-0.448,46.613l0.448,0.469c13.023,12.95,34.06,12.95,47.083,0l10.667-10.667
	C510.055,468.684,510.245,447.947,497.652,434.893L497.652,434.893z"/>
<path style="fill:#FFC107;" d="M406.474,380.109l-21.333,21.333c-1.924,2.074-4.637,3.237-7.467,3.2
	c-2.403-0.03-4.729-0.855-6.613-2.347l-63.787-50.987l-16.64-13.227L27.167,127.522C-2.46,99.008-3.361,51.875,25.153,22.248
	c0.313-0.325,0.628-0.647,0.947-0.966c29.481-28.376,76.119-28.376,105.6,0c0.381,0.168,0.686,0.472,0.853,0.853l210.56,263.467
	l13.227,16.64l50.987,63.787C410.709,370.242,410.34,376.334,406.474,380.109z"/>
<polygon style="fill:#FF8F00;" points="343.114,285.602 290.634,338.082 307.274,351.309 356.34,302.242 "/>
<path d="M79.007,511.309c-41.237,0-74.667-33.429-74.667-74.667s33.429-74.667,74.667-74.667s74.667,33.429,74.667,74.667
	S120.244,511.309,79.007,511.309L79.007,511.309z M79.007,383.309c-29.455,0-53.333,23.878-53.333,53.333
	s23.878,53.333,53.333,53.333s53.333-23.878,53.333-53.333S108.462,383.309,79.007,383.309L79.007,383.309z"/>
<path d="M121.674,494.711c-2.638,0.005-5.184-0.968-7.147-2.731c-30.551-27.133-33.322-73.895-6.189-104.446
	c1.939-2.183,4.005-4.25,6.189-6.189c4.06-3.664,10.233-3.664,14.293,0c30.551,27.133,33.322,73.895,6.189,104.446
	c-1.939,2.183-4.005,4.25-6.189,6.189C126.858,493.743,124.312,494.716,121.674,494.711z M121.674,404.941
	c-14.227,18.748-14.227,44.676,0,63.424C135.901,449.617,135.901,423.688,121.674,404.941z"/>
<path d="M36.34,494.711c-2.638,0.005-5.184-0.968-7.147-2.731c-30.551-27.133-33.322-73.895-6.189-104.446
	c1.939-2.183,4.005-4.25,6.189-6.189c4.06-3.664,10.233-3.664,14.293,0c15.731,14.088,24.761,34.179,24.853,55.296
	c-0.086,21.125-9.117,41.224-24.853,55.317C41.528,493.73,38.981,494.71,36.34,494.711z M36.34,404.941
	c-14.227,18.748-14.227,44.676,0,63.424c6.945-9.107,10.694-20.249,10.667-31.701C47.039,425.203,43.29,414.053,36.34,404.941z"/>
<path d="M377.674,404.642c-2.418,0.002-4.765-0.818-6.656-2.325L27.082,127.565C-2.528,98.948-3.334,51.746,25.283,22.136
	c0.305-0.316,0.613-0.629,0.924-0.94c29.545-28.198,76.034-28.198,105.579,0c0.277,0.277,0.533,0.576,0.789,0.896l274.752,343.893
	c3.396,4.245,3.056,10.365-0.789,14.208l-21.333,21.333C383.205,403.521,380.497,404.641,377.674,404.642z M79.007,20.642
	C49.552,20.636,25.669,44.51,25.664,73.965c-0.003,14.151,5.619,27.723,15.626,37.727l335.595,267.989l7.829-7.829L116.319,35.874
	C106.371,26.085,92.964,20.612,79.007,20.642z"/>
<path d="M463.007,501.922c-18.38-0.037-33.25-14.968-33.212-33.348c0.018-8.802,3.522-17.239,9.746-23.463l10.667-10.667
	c13.816-12.14,34.857-10.782,46.997,3.034c11.047,12.572,11.047,31.391,0,43.963l-10.667,10.667
	C480.317,498.388,471.846,501.921,463.007,501.922z M473.674,446.007c-3.2-0.035-6.279,1.227-8.533,3.499l-10.667,10.667
	c-4.528,4.815-4.295,12.389,0.52,16.917c4.607,4.332,11.79,4.332,16.397,0l10.667-10.667c4.666-4.665,4.666-12.229,0.001-16.895
	c0,0-0.001-0.001-0.001-0.001l0,0C479.844,447.283,476.826,446.016,473.674,446.007z"/>
<path d="M313.674,340.642c-5.891,0.011-10.675-4.757-10.686-10.648c-0.005-2.84,1.123-5.565,3.134-7.571l21.333-21.333
	c4.237-4.092,10.99-3.975,15.083,0.262c3.992,4.134,3.992,10.687,0,14.82l-21.333,21.333
	C319.209,339.508,316.5,340.636,313.674,340.642z"/>
<path d="M441.674,468.642c-2.831,0.005-5.548-1.115-7.552-3.115l-64-64c-4.164-4.165-4.164-10.917,0-15.083l21.333-21.333
	c4.165-4.164,10.917-4.164,15.083,0l64,64c4.164,4.165,4.164,10.917,0,15.083l-21.333,21.333
	C447.205,467.521,444.497,468.641,441.674,468.642z M392.756,393.975l48.917,48.917l6.251-6.251l-48.917-48.917L392.756,393.975z"/>
<g>
</g>
<g>
</g>
<g>
</g>
<g>
</g>
<g>
</g>
<g>
</g>
<g>
</g>
<g>
</g>
<g>
</g>
<g>
</g>
<g>
</g>
<g>
</g>
<g>
</g>
<g>
</g>
<g>
</g>
</svg>
