<svg id="Layer_1" enable-background="new 0 0 512 512" height="512" viewBox="0 0 512 512" width="512" xmlns="http://www.w3.org/2000/svg"><g><g><g><g id="XMLID_1443_"><g id="XMLID_1444_"><g id="XMLID_1445_"><g id="XMLID_1446_"><g id="XMLID_1447_"><g id="XMLID_1448_"><g id="XMLID_1449_"><g id="XMLID_1450_"><g id="XMLID_1451_"><g id="XMLID_1452_"><g id="XMLID_1453_"><g id="XMLID_1454_"><g id="XMLID_1455_"><g id="XMLID_1456_"><g id="XMLID_1457_"><circle cx="256" cy="256" fill="#fdbf2d" r="256"/></g></g></g></g></g></g></g></g></g></g></g></g></g></g></g></g></g><path d="m512 256c0-30.66-5.397-60.057-15.281-87.303l-97.622-98.282s-131.305 293.865-132.795 296.137l-98.146-96.19-108.895 40.34 94.423 94.217c-.518 2.193-1.382 37.444-1.382 37.444l67.373 67.059c11.869 1.687 23.992 2.578 36.325 2.578 141.385 0 256-114.615 256-256z" fill="#f7a20b"/><g><path d="m337.062 142.298-73.09 212.929c-5.822 16.961-24.064 26.23-41.197 20.933l-35.543-10.99c-22.993-7.11-46.513 9.394-47.648 33.434l-.512 10.838c-1.11 23.513 17.051 43.475 40.565 44.586l55.571 1.733c25.072.782 48.162-13.564 58.568-36.388l89.646-261.161z" fill="#ed2f54"/><path d="m383.423 158.212-84.81 247.06v-150.96l38.45-112.01z" fill="#cc0e45"/><path d="m374.379 184.557-46.36-15.913 30.516-88.901c4.394-12.802 18.335-19.618 31.137-15.223 12.802 4.394 19.617 18.335 15.223 31.136z" fill="#514747"/></g><g><path d="m158.054 315.798h-89c-6.6 0-12-5.4-12-12v-27c0-6.6 5.4-12 12-12h89c6.6 0 12 5.4 12 12v27c0 6.6-5.4 12-12 12z" fill="#726565"/><path d="m170.053 276.801v27c0 6.6-5.4 12-12 12h-44.5v-51h44.5c6.6 0 12 5.4 12 12z" fill="#514747"/></g></g></svg>