<svg height="512pt" viewBox="0 0 512 512.00011" width="512pt" xmlns="http://www.w3.org/2000/svg"><path d="m503.464844 409.601562c0 51.882813-110.761719 93.863282-247.464844 93.863282s-247.464844-41.980469-247.464844-93.863282c0-25.859374 27.476563-49.324218 72.105469-66.304687 6.753906 9.824219 14.347656 19.046875 22.699219 27.5625 1.535156 1.621094 3.070312 3.15625 4.691406 4.605469 3.074219 3.074218 6.230469 5.890625 9.472656 8.621094.171875.171874.257813.339843.425782.425781 2.902343 2.476562 5.804687 4.863281 8.875 7.082031.699218.597656 1.441406 1.136719 2.21875 1.621094 3.074218 2.390625 6.230468 4.609375 9.472656 6.742187.464844.316407.949218.601563 1.449218.855469 2.5625 1.789062 5.121094 3.328125 7.765626 4.863281 2.132812 1.363281 4.351562 2.558594 6.570312 3.753907 2.988281 1.707031 6.058594 3.242187 9.21875 4.691406 2.472656 1.28125 5.117188 2.390625 7.679688 3.585937 3.925781 1.707031 7.933593 3.242188 11.945312 4.691407 2.21875.769531 4.351562 1.539062 6.570312 2.21875 3.074219 1.027343 6.144532 1.964843 9.300782 2.816406.183594.109375.386718.167968.597656.171875.070312.066406.164062.097656.257812.085937 2.046876.597656 4.179688 1.109375 6.3125 1.535156.148438.171876.382813.238282.597657.171876 2.132812.605468 4.300781 1.089843 6.488281 1.449218.804688.253906 1.632812.421875 2.472656.511719 2.304688.425781 4.609375.855469 6.996094 1.195313 6.558594 1.085937 13.164062 1.828124 19.796875 2.21875 1.28125.085937 2.5625.171874 3.757813.171874 3.242187.167969 6.484374.253907 9.726562.253907s6.484375-.085938 9.726562-.253907c1.195313 0 2.476563-.085937 3.757813-.171874 6.632813-.390626 13.238281-1.132813 19.796875-2.21875 2.386719-.339844 4.691406-.769532 6.996094-1.195313.839844-.089844 1.667968-.257813 2.476562-.511719 2.183594-.359375 4.351563-.84375 6.484375-1.449218.214844.066406.449219 0 .597657-.171876 2.132812-.425781 4.265624-.9375 6.3125-1.535156.09375.011719.1875-.019531.257812-.085937.210938-.003907.414062-.0625.597656-.171875 3.15625-.851563 6.226563-1.789063 9.300782-2.816406 2.21875-.679688 4.351562-1.449219 6.570312-2.21875 4.011719-1.449219 8.019531-2.984376 11.945312-4.691407 2.5625-1.195312 5.207032-2.304687 7.679688-3.585937 3.160156-1.449219 6.230469-2.984375 9.21875-4.691406 2.21875-1.195313 4.4375-2.390626 6.570312-3.753907 2.644532-1.535156 5.203126-3.074219 7.765626-4.863281.5-.253906.984374-.539062 1.449218-.855469 3.242188-2.132812 6.398438-4.351562 9.472656-6.742187.777344-.484375 1.519532-1.023438 2.21875-1.621094 3.070313-2.21875 5.972657-4.605469 8.875-7.082031.167969-.085938.253907-.253907.425782-.425781 3.242187-2.730469 6.398437-5.546876 9.472656-8.621094 1.621094-1.449219 3.15625-2.984375 4.691406-4.605469 8.351563-8.515625 15.945313-17.738281 22.699219-27.5625 44.628906 16.980469 72.105469 40.445313 72.105469 66.304687zm0 0" fill="#4caf50"/><path d="m443.734375 409.601562c0-32.992187-84.050781-59.734374-187.734375-59.734374s-187.734375 26.742187-187.734375 59.734374c0 32.988282 84.050781 59.730469 187.734375 59.730469s187.734375-26.742187 187.734375-59.730469zm0 0" fill="#2e7d32"/><path d="m460.457031 282.710938c-.679687 2.21875-1.363281 4.4375-2.132812 6.65625-1.363281 4.4375-2.984375 8.789062-4.777344 13.054687-.851563 2.132813-1.792969 4.179687-2.730469 6.3125-.9375 2.136719-1.878906 4.183594-2.902344 6.230469-1.535156 3.328125-3.242187 6.570312-5.035156 9.8125-1.109375 2.050781-2.304687 4.097656-3.496094 6.144531-2.476562 4.183594-5.121093 8.363281-8.023437 12.375-6.753906 9.824219-14.347656 19.046875-22.699219 27.5625-1.535156 1.535156-3.070312 3.070313-4.691406 4.605469h-25.601562c1.621093-1.535156 3.15625-3.070313 4.695312-4.605469 8.347656-8.515625 15.941406-17.738281 22.699219-27.5625 2.898437-4.011719 5.546875-8.191406 8.019531-12.375 1.195312-2.046875 2.390625-4.09375 3.5-6.144531 1.789062-3.242188 3.496094-6.484375 5.035156-9.8125 1.023438-2.046875 1.960938-4.09375 2.898438-6.230469.941406-2.132813 1.878906-4.179687 2.730468-6.3125 1.792969-4.265625 3.414063-8.617187 4.78125-13.054687.765626-2.21875 1.449219-4.4375 2.132813-6.65625 3.28125-10.878907 5.652344-22.011719 7.082031-33.28125zm0 0" fill="#cfd8dc"/><path d="m403.96875 375.464844c-3.074219 2.988281-6.230469 5.890625-9.472656 8.621094-.171875.171874-.257813.339843-.425782.425781-2.902343 2.476562-5.804687 4.863281-8.875 7.082031-.699218.597656-1.441406 1.136719-2.21875 1.621094-3.074218 2.390625-6.230468 4.609375-9.472656 6.742187-.464844.316407-.949218.601563-1.449218.855469-2.5 1.761719-5.089844 3.382812-7.765626 4.863281-2.132812 1.363281-4.351562 2.558594-6.570312 3.753907-3.074219 1.621093-6.144531 3.242187-9.21875 4.691406-2.558594 1.28125-5.035156 2.390625-7.679688 3.585937-3.925781 1.707031-7.933593 3.242188-11.945312 4.691407-2.132812.855468-4.351562 1.539062-6.570312 2.21875-3.074219 1.027343-6.144532 1.964843-9.300782 2.816406-.183594.109375-.386718.167968-.597656.171875l28.925781-52.140625zm0 0" fill="#37474f"/><path d="m199.59375 427.605469c-.210938-.003907-.414062-.0625-.597656-.171875-3.15625-.851563-6.226563-1.789063-9.300782-2.816406-2.21875-.679688-4.4375-1.363282-6.570312-2.21875-4.011719-1.449219-8.019531-2.984376-11.945312-4.691407-2.644532-1.195312-5.121094-2.304687-7.679688-3.585937-3.074219-1.449219-6.144531-3.070313-9.21875-4.691406-2.21875-1.195313-4.4375-2.390626-6.570312-3.753907-2.675782-1.480469-5.265626-3.101562-7.765626-4.863281-.5-.253906-.984374-.539062-1.449218-.855469-3.242188-2.132812-6.398438-4.351562-9.472656-6.742187-.777344-.484375-1.519532-1.023438-2.21875-1.621094-3.070313-2.21875-5.972657-4.605469-8.875-7.082031-.167969-.085938-.253907-.253907-.425782-.425781-3.242187-2.730469-6.398437-5.632813-9.472656-8.621094h62.636719zm0 0" fill="#607d8b"/><path d="m213.332031 298.667969-42.664062 76.796875h-62.636719c-1.621094-1.535156-3.15625-3.070313-4.691406-4.605469-8.351563-8.515625-15.945313-17.738281-22.699219-27.5625-2.902344-4.011719-5.546875-8.191406-8.023437-12.375-1.191407-2.046875-2.386719-4.09375-3.496094-6.144531-1.792969-3.242188-3.5-6.484375-5.035156-9.8125-1.023438-2.046875-1.964844-4.09375-2.902344-6.230469-.9375-2.132813-1.875-4.179687-2.730469-6.3125-1.792969-4.265625-3.414063-8.617187-4.777344-13.054687-.769531-2.21875-1.453125-4.4375-2.132812-6.65625l33.789062-60.84375h85.335938zm0 0" fill="#fff"/><path d="m85.332031 221.867188-33.789062 60.84375c-11.835938-39.699219-11.835938-81.988282 0-121.6875zm0 0" fill="#607d8b"/><path d="m213.332031 145.066406-42.664062 76.800782h-85.335938l-33.789062-60.84375c10.441406-35.304688 29.914062-67.273438 56.488281-92.757813h62.636719zm0 0" fill="#fff"/><path d="m341.332031 221.867188-42.664062 76.800781h-85.335938l-42.664062-76.800781 42.664062-76.800782h85.335938zm0 0" fill="#607d8b"/><path d="m460.457031 161.023438-18.515625 33.28125c-1.429687-11.273438-3.800781-22.402344-7.082031-33.28125-10.445313-35.304688-29.917969-67.273438-56.492187-92.757813h25.601562c26.574219 25.484375 46.046875 57.453125 56.488281 92.757813zm0 0" fill="#cfd8dc"/><path d="m403.96875 68.265625h-62.636719l-22.527343-40.617187-6.398438-11.519532c34.4375 9.355469 65.941406 27.292969 91.5625 52.136719zm0 0" fill="#37474f"/><path d="m199.59375 16.128906-28.925781 52.136719h-62.636719c25.621094-24.84375 57.125-42.78125 91.5625-52.136719zm0 0" fill="#607d8b"/><path d="m318.804688 27.648438c-10.328126-4.726563-21.03125-8.578126-32-11.519532-14.242188-3.917968-28.859376-6.324218-43.605469-7.167968 4.183593-.257813 8.535156-.425782 12.800781-.425782 19.058594-.019531 38.03125 2.535156 56.40625 7.59375zm0 0" fill="#cfd8dc"/><path d="m469.332031 221.867188c.035157 20.605468-2.957031 41.105468-8.875 60.84375l-18.515625-33.28125-15.273437-27.5625 15.273437-27.5625 18.515625-33.28125c5.917969 19.738281 8.910157 40.238281 8.875 60.84375zm0 0" fill="#37474f"/><path d="m441.941406 249.429688c-1.429687 11.269531-3.800781 22.402343-7.082031 33.28125-.683594 2.21875-1.367187 4.4375-2.132813 6.65625-1.367187 4.4375-2.988281 8.789062-4.78125 13.054687-.851562 2.132813-1.789062 4.179687-2.730468 6.3125-.9375 2.136719-1.875 4.183594-2.898438 6.230469-1.539062 3.328125-3.246094 6.570312-5.035156 9.8125-1.109375 2.050781-2.304688 4.097656-3.5 6.144531-2.472656 4.183594-5.121094 8.363281-8.019531 12.375-6.757813 9.824219-14.351563 19.046875-22.699219 27.5625-1.539062 1.535156-3.074219 3.070313-4.695312 4.605469h-37.035157l-42.664062-76.796875 42.664062-76.800781h85.335938zm0 0" fill="#fff"/><path d="m378.367188 375.464844c-3.070313 2.988281-6.226563 5.890625-9.472657 8.621094-.167969.171874-.253906.339843-.425781.425781-2.902344 2.476562-5.800781 4.863281-8.875 7.082031-.695312.597656-1.4375 1.136719-2.21875 1.621094-3.070312 2.390625-6.226562 4.609375-9.472656 6.742187-.460938.316407-.945313.601563-1.449219.855469-2.496094 1.761719-5.089844 3.382812-7.765625 4.863281-2.132812 1.363281-4.351562 2.558594-6.570312 3.753907-3.070313 1.621093-6.144532 3.242187-9.214844 4.691406-1.367188.683594-2.730469 1.28125-4.097656 1.878906l22.527343-40.535156zm0 0" fill="#607d8b"/><path d="m341.332031 375.464844-22.527343 40.535156v.085938l-6.398438 11.519531c-.070312.066406-.164062.097656-.257812.085937-2.132813.597656-4.179688 1.109375-6.3125 1.535156-.148438.171876-.382813.238282-.597657.171876-2.132812.597656-4.265625 1.023437-6.484375 1.449218-.808594.253906-1.636718.421875-2.476562.511719-2.304688.511719-4.691406.855469-6.996094 1.195313-6.558594 1.085937-13.164062 1.828124-19.796875 2.21875-1.195313.085937-2.476563.171874-3.757813.171874-3.242187.167969-6.484374.253907-9.726562.253907s-6.484375-.085938-9.726562-.253907c-.800782-.015624-1.597657-.074218-2.390626-.171874h-1.367187c-6.632813-.390626-13.238281-1.132813-19.796875-2.21875-2.300781-.339844-4.691406-.683594-6.996094-1.195313-.839844-.089844-1.667968-.257813-2.472656-.511719-2.21875-.425781-4.355469-.851562-6.488281-1.449218-.214844.066406-.449219 0-.597657-.171876-2.132812-.425781-4.179687-.9375-6.3125-1.535156-.09375.011719-.1875-.019531-.257812-.085937l-28.925781-52.140625 42.664062-76.796875h85.335938zm0 0" fill="#fff"/><path d="m441.941406 194.304688-15.273437 27.5625h-85.335938l-42.664062-76.800782 42.664062-76.800781h37.035157c26.574218 25.484375 46.046874 57.453125 56.492187 92.757813 3.28125 10.878906 5.652344 22.007812 7.082031 33.28125zm0 0" fill="#fff"/><path d="m378.367188 68.265625h-37.035157l-22.527343-40.617187c22.03125 10.035156 42.175781 23.773437 59.5625 40.617187zm0 0" fill="#607d8b"/><path d="m341.332031 68.265625-42.664062 76.800781h-85.335938l-42.664062-76.800781 28.925781-52.136719c14.242188-3.917968 28.859375-6.324218 43.605469-7.167968 14.746093.84375 29.363281 3.25 43.605469 7.167968 10.96875 2.941406 21.671874 6.792969 32 11.519532zm0 0" fill="#fff"/><path d="m443.734375 221.867188c.007813 9.214843-.589844 18.425781-1.792969 27.5625l-15.273437-27.5625 15.273437-27.5625c1.203125 9.136718 1.800782 18.34375 1.792969 27.5625zm0 0" fill="#607d8b"/><path d="m256 512c143.546875 0 256-44.980469 256-102.398438 0-26.925781-24.003906-51.679687-67.855469-70.339843 10.5625-16.859375 18.796875-35.070313 24.480469-54.136719v-.152344c12.265625-41.175781 12.265625-85.035156 0-126.210937v-.152344c-10.902344-36.460937-30.996094-69.507813-58.351562-95.964844-.246094-.273437-.511719-.527343-.792969-.761719-26.566407-25.542968-59.078125-44.0625-94.601563-53.886718l-.273437-.078125c-38.359375-10.558594-78.859375-10.558594-117.222657 0l-.261718.078125c-35.519532 9.828125-68.03125 28.347656-94.601563 53.886718-.28125.234376-.546875.488282-.792969.761719-27.355468 26.457031-47.449218 59.503907-58.351562 95.964844v.152344c-12.265625 41.175781-12.265625 85.035156 0 126.210937v.152344c5.683594 19.066406 13.917969 37.277344 24.480469 54.136719-43.851563 18.660156-67.855469 43.414062-67.855469 70.339843 0 57.417969 112.453125 102.398438 256 102.398438zm-195.242188-228.308594 29.601563-53.292968h75.28125l21.332031 38.402343 16.597656 29.867188-16.585937 29.867187-21.335937 38.398438h-54.058594c-23.390625-23.257813-40.828125-51.8125-50.832032-83.242188zm-9.558593-61.824218c.015625-12.597657 1.191406-25.167969 3.515625-37.546876l20.855468 37.546876-20.855468 37.546874c-2.324219-12.382812-3.5-24.949218-3.515625-37.546874zm167.160156-68.265626h75.28125l21.332031 38.398438 16.597656 29.867188-16.585937 29.867187-21.335937 38.398437h-75.289063l-21.332031-38.398437-16.597656-29.867187 16.589843-29.867188zm-52.71875 230.398438 15.855469 28.578125c-18.070313-7.089844-35.042969-16.710937-50.40625-28.578125zm39.65625 36.308594-24.867187-44.84375 6.894531-12.414063 31.035156-55.851562h75.28125l31.035156 55.859375 6.894531 12.40625-24.863281 44.835937c-33.273437 8.476563-68.140625 8.476563-101.410156 0zm141.0625-36.308594h34.550781c-15.363281 11.867188-32.332031 21.488281-50.40625 28.578125zm54.050781-17.066406h-54.050781l-21.332031-38.398438-16.597656-29.867187 16.589843-29.867188 21.332031-38.402343h75.28125l29.601563 53.292968c-10 31.429688-27.4375 59.984375-50.824219 83.242188zm60.390625-145.066406c-.015625 12.597656-1.191406 25.164062-3.515625 37.546874l-20.855468-37.546874 20.855468-37.546876c2.324219 12.378907 3.5 24.949219 3.515625 37.546876zm-9.558593-61.824219-29.601563 53.289062h-75.28125l-21.332031-38.398437-16.597656-29.867188 16.589843-29.867187 21.332031-38.398438h54.050782c23.394531 23.253907 40.835937 51.808594 50.839844 83.242188zm-104.882813-100.308594-15.855469-28.578125c18.074219 7.089844 35.042969 16.710938 50.40625 28.578125zm-39.652344-36.308594 24.863281 44.839844-6.894531 12.417969-31.035156 55.851562h-75.28125l-31.035156-55.859375-6.894531-12.410156 24.867187-44.832031c33.269531-8.476563 68.136719-8.476563 101.410156 0zm-141.066406 36.308594h-34.550781c15.363281-11.867187 32.335937-21.488281 50.40625-28.578125zm-54.050781 17.066406h54.050781l21.332031 38.398438 16.597656 29.867187-16.585937 29.867188-21.335937 38.398437h-75.289063l-29.601563-53.289062c10.003907-31.433594 27.441407-59.988281 50.832032-83.242188zm-33.9375 276.871094c7.265625 9.78125 15.316406 18.949219 24.074218 27.417969.246094.273437.511719.527344.792969.761718 26.5625 25.546876 59.078125 44.066407 94.601563 53.886719l.167968.066407.292969.070312c38.238281 10.480469 78.597657 10.480469 116.835938 0l.417969-.121094c35.539062-9.820312 68.070312-28.347656 94.644531-53.902344.28125-.234374.546875-.488281.792969-.761718 8.757812-8.46875 16.808593-17.636719 24.074218-27.417969 38.578125 15.820313 60.585938 35.984375 60.585938 55.929687 0 41.207032-96.007813 85.332032-238.933594 85.332032s-238.933594-44.125-238.933594-85.332032c0-19.945312 22.007813-40.109374 60.585938-55.929687zm0 0"/></svg>